<svg width="14" height="13" viewBox="0 0 14 13" fill="none" xmlns="http://www.w3.org/2000/svg">
<path d="M0.44019 12.2503C0.30205 12.4894 0.383899 12.7952 0.623006 12.9333C0.862112 13.0715 1.16793 12.9896 1.30607 12.7505L0.44019 12.2503ZM12.5667 12.7506C12.7048 12.9897 13.0106 13.0716 13.2497 12.9335C13.4888 12.7953 13.5707 12.4895 13.4326 12.2504L12.5667 12.7506ZM10.4364 5.00001C10.4364 6.93301 8.86937 8.50001 6.93637 8.50001V9.50001C9.42165 9.50001 11.4364 7.48529 11.4364 5.00001H10.4364ZM6.93637 8.50001C5.00337 8.50001 3.43636 6.93301 3.43636 5.00001H2.43636C2.43636 7.48529 4.45108 9.50001 6.93637 9.50001V8.50001ZM3.43636 5.00001C3.43636 3.06701 5.00337 1.5 6.93637 1.5V0.5C4.45108 0.5 2.43636 2.51472 2.43636 5.00001H3.43636ZM6.93637 1.5C8.86937 1.5 10.4364 3.06701 10.4364 5.00001H11.4364C11.4364 2.51472 9.42165 0.5 6.93637 0.5V1.5ZM1.30607 12.7505C1.8769 11.7625 2.69769 10.942 3.68599 10.3716L3.18612 9.50554C2.04583 10.1637 1.09881 11.1103 0.44019 12.2503L1.30607 12.7505ZM3.68599 10.3716C4.67452 9.80111 5.79554 9.5 6.93637 9.50001V8.50001C5.61952 8.5 4.32619 8.84755 3.18612 9.50554L3.68599 10.3716ZM6.93637 9.50001C8.0772 9.50002 9.19825 9.80116 10.1868 10.3717L10.6867 9.50562C9.54661 8.8476 8.25321 8.50003 6.93637 8.50001V9.50001ZM10.1868 10.3717C11.1751 10.9421 11.9959 11.7626 12.5667 12.7506L13.4326 12.2504C12.774 11.1104 11.827 10.1638 10.6867 9.50562L10.1868 10.3717Z" fill="#DA2F37"/>
</svg>
