<svg width="29" height="25" viewBox="0 0 29 25" fill="none" xmlns="http://www.w3.org/2000/svg">
<path d="M27.2676 2.88222L1.29133 2.88222C0.699648 2.88222 0.208984 2.39156 0.208984 1.79988C0.208984 1.20819 0.699648 0.717529 1.29133 0.717529L27.2676 0.717529C27.8593 0.717529 28.35 1.20819 28.35 1.79988C28.35 2.39156 27.8593 2.88222 27.2676 2.88222ZM27.2676 10.0979L1.29133 10.0979C0.699648 10.0979 0.208984 9.6072 0.208984 9.01552C0.208984 8.42383 0.699648 7.93317 1.29133 7.93317L27.2676 7.93317C27.8593 7.93317 28.35 8.42383 28.35 9.01552C28.35 9.6072 27.8593 10.0979 27.2676 10.0979ZM27.2676 17.3135L1.29133 17.3135C0.699648 17.3135 0.208984 16.8228 0.208984 16.2312C0.208984 15.6395 0.699648 15.1488 1.29133 15.1488L27.2676 15.1488C27.8593 15.1488 28.35 15.6395 28.35 16.2312C28.35 16.8228 27.8593 17.3135 27.2676 17.3135ZM27.2676 24.5291L1.29133 24.5291C0.699648 24.5291 0.208984 24.0385 0.208984 23.4468C0.208984 22.8551 0.699648 22.3644 1.29133 22.3644L27.2676 22.3644C27.8593 22.3644 28.35 22.8551 28.35 23.4468C28.35 24.0385 27.8593 24.5291 27.2676 24.5291Z" fill="white"/>
</svg>
